<svg t="1624871347568" class="icon" viewBox="0 0 1024 1024" version="1.1" xmlns="http://www.w3.org/2000/svg" p-id="2784" width="200" height="200"><path d="M38.222507 721.220267c0-40.86784 16.713387-78.01856 43.636053-104.941227s64.07168-43.636053 104.93952-43.636053h634.560853c40.86784 0 78.016853 16.713387 104.93952 43.636053s43.636053 64.073387 43.636054 104.941227c0 40.86784-16.713387 78.016853-43.636054 104.937813-26.922667 26.922667-64.07168 43.636053-104.93952 43.636053H186.79808c-40.86784 0-78.016853-16.713387-104.93952-43.636053-26.922667-26.92096-43.636053-64.069973-43.636053-104.937813z m60.66176-87.91552C76.317013 655.872 62.306987 686.99648 62.306987 721.220267c0 34.223787 14.010027 65.34656 36.57728 87.912106 22.567253 22.567253 53.690027 36.57728 87.913813 36.57728h634.560853c34.223787 0 65.34656-14.010027 87.913814-36.57728 22.567253-22.565547 36.57728-53.68832 36.57728-87.912106 0-34.223787-14.010027-65.348267-36.57728-87.91552-22.567253-22.567253-53.690027-36.57728-87.913814-36.57728H186.79808c-34.223787 0-65.34656 14.010027-87.913813 36.57728z" p-id="2785"></path><path d="M188.88704 785.18784c17.665707 0 33.660587-7.161173 45.2352-18.73408 11.572907-11.574613 18.73408-27.569493 18.73408-45.2352 0-17.665707-7.161173-33.660587-18.73408-45.2352-11.574613-11.572907-27.569493-18.73408-45.2352-18.73408-17.665707 0-33.660587 7.161173-45.2352 18.73408-11.572907 11.574613-18.73408 27.569493-18.73408 45.2352 0 17.665707 7.161173 33.660587 18.73408 45.2352 11.574613 11.572907 27.569493 18.73408 45.2352 18.73408z m79.290027 15.320747c-20.293973 20.292267-48.329387 32.8448-79.290027 32.8448-30.96064 0-58.996053-12.552533-79.290027-32.8448-20.292267-20.293973-32.8448-48.329387-32.8448-79.290027 0-30.96064 12.552533-58.996053 32.8448-79.290027 20.293973-20.292267 48.329387-32.8448 79.290027-32.8448 30.96064 0 58.996053 12.552533 79.290027 32.8448 20.292267 20.293973 32.8448 48.329387 32.8448 79.290027 0 30.96064-12.552533 58.996053-32.8448 79.290027zM821.51424 785.18784c17.665707 0 33.660587-7.161173 45.2352-18.73408 11.572907-11.574613 18.73408-27.569493 18.73408-45.2352 0-17.665707-7.161173-33.660587-18.73408-45.2352-11.574613-11.572907-27.569493-18.73408-45.2352-18.73408-17.665707 0-33.660587 7.161173-45.2352 18.73408-11.572907 11.574613-18.73408 27.569493-18.73408 45.2352 0 17.665707 7.161173 33.660587 18.73408 45.2352 11.574613 11.572907 27.569493 18.73408 45.2352 18.73408z m79.290027 15.320747c-20.293973 20.292267-48.329387 32.8448-79.290027 32.8448-30.96064 0-58.996053-12.552533-79.290027-32.8448-20.292267-20.293973-32.8448-48.329387-32.8448-79.290027 0-30.96064 12.552533-58.996053 32.8448-79.290027 20.293973-20.292267 48.329387-32.8448 79.290027-32.8448 30.96064 0 58.996053 12.552533 79.290027 32.8448 20.292267 20.293973 32.8448 48.329387 32.8448 79.290027 0 30.96064-12.552533 58.996053-32.8448 79.290027zM220.801707 446.206293h38.249813c5.623467 0 10.769067 2.317653 14.5152 6.060374l0.023893-0.023894c3.72224 3.72224 6.03648 8.869547 6.03648 14.539094v81.14688c0 5.669547-2.31424 10.816853-6.03648 14.539093l-0.023893-0.023893c-3.746133 3.74272-8.891733 6.060373-14.5152 6.060373h-38.249813c-5.614933 0-10.74688-2.30912-14.493014-6.03648l-0.04608-0.04608c-3.72736-3.746133-6.03648-8.87808-6.03648-14.493013v-81.14688c0-5.614933 2.30912-10.74688 6.03648-14.493014l0.04608-0.04608c3.746133-3.72736 8.87808-6.03648 14.493014-6.03648z m34.740906 24.08448h-31.232v74.129067h31.232v-74.129067zM357.33504 446.206293h38.249813c5.623467 0 10.769067 2.317653 14.5152 6.060374l0.023894-0.023894c3.72224 3.72224 6.03648 8.869547 6.03648 14.539094v81.14688c0 5.669547-2.31424 10.816853-6.03648 14.539093l-0.023894-0.023893c-3.746133 3.74272-8.891733 6.060373-14.5152 6.060373h-38.249813c-5.614933 0-10.74688-2.30912-14.493013-6.03648l-0.04608-0.04608c-3.72736-3.746133-6.03648-8.87808-6.03648-14.493013v-81.14688c0-5.614933 2.30912-10.74688 6.03648-14.493014l0.04608-0.04608c3.746133-3.72736 8.87808-6.03648 14.493013-6.03648z m34.740907 24.08448h-31.232v74.129067h31.232v-74.129067zM493.868373 446.206293h38.249814c5.623467 0 10.769067 2.317653 14.5152 6.060374l0.023893-0.023894c3.72224 3.72224 6.03648 8.869547 6.03648 14.539094v81.14688c0 5.669547-2.31424 10.816853-6.03648 14.539093l-0.023893-0.023893c-3.746133 3.74272-8.891733 6.060373-14.5152 6.060373h-38.249814c-5.614933 0-10.74688-2.30912-14.493013-6.03648l-0.04608-0.04608c-3.72736-3.746133-6.03648-8.87808-6.03648-14.493013v-81.14688c0-5.614933 2.30912-10.74688 6.03648-14.493014l0.04608-0.04608c3.746133-3.72736 8.87808-6.03648 14.493013-6.03648z m34.740907 24.08448h-31.232v74.129067h31.232v-74.129067zM630.401707 446.206293h38.249813c5.623467 0 10.769067 2.317653 14.5152 6.060374l0.023893-0.023894c3.72224 3.72224 6.03648 8.869547 6.03648 14.539094v81.14688c0 5.669547-2.31424 10.816853-6.03648 14.539093l-0.023893-0.023893c-3.746133 3.74272-8.891733 6.060373-14.5152 6.060373h-38.249813c-5.614933 0-10.74688-2.30912-14.493014-6.03648l-0.04608-0.04608c-3.72736-3.746133-6.03648-8.87808-6.03648-14.493013v-81.14688c0-5.614933 2.30912-10.74688 6.03648-14.493014l0.04608-0.04608c3.746133-3.72736 8.87808-6.03648 14.493014-6.03648z m34.740906 24.08448h-31.232v74.129067h31.232v-74.129067z" p-id="2786"></path><path d="M357.476693 512.718507h38.813014c5.623467 0 10.064213 7.978667 13.810346 9.470293l0.023894-0.01024c3.72224 1.483093 6.03648 3.534507 6.03648 5.794133v32.3328c0 2.259627-2.31424 4.31104-6.03648 5.794134l-0.023894-0.01024c-3.746133 1.491627-8.891733 2.414933-14.5152 2.414933h-38.249813c-5.614933 0-10.74688-0.919893-14.493013-2.404693l-0.04608-0.018774c-3.72736-1.493333-6.03648-3.53792-6.03648-5.77536v-32.3328c0-2.23744 2.30912-4.282027 6.03648-5.77536l0.04608-0.018773c3.746133-1.4848 9.019733-9.460053 14.634666-9.460053z m34.599254 25.402026l-31.232 0.2816v20.5056h31.232v-20.7872zM494.010027 512.718507h38.813013c5.623467 0 10.064213 7.978667 13.810347 9.470293l0.023893-0.01024c3.72224 1.483093 6.03648 3.534507 6.03648 5.794133v32.3328c0 2.259627-2.31424 4.31104-6.03648 5.794134l-0.023893-0.01024c-3.746133 1.491627-8.891733 2.414933-14.5152 2.414933h-38.249814c-5.614933 0-10.74688-0.919893-14.493013-2.404693l-0.04608-0.018774c-3.72736-1.493333-6.03648-3.53792-6.03648-5.77536v-32.3328c0-2.23744 2.30912-4.282027 6.03648-5.77536l0.04608-0.018773c3.746133-1.4848 9.019733-9.460053 14.634667-9.460053z m34.599253 25.402026l-31.232 0.2816v20.5056h31.232v-20.7872zM630.54336 512.718507h38.813013c5.623467 0 10.064213 7.978667 13.810347 9.470293l0.023893-0.01024c3.72224 1.483093 6.03648 3.534507 6.03648 5.794133v32.3328c0 2.259627-2.31424 4.31104-6.03648 5.794134l-0.023893-0.01024c-3.746133 1.491627-8.891733 2.414933-14.5152 2.414933h-38.249813c-5.614933 0-10.74688-0.919893-14.493014-2.404693l-0.04608-0.018774c-3.72736-1.493333-6.03648-3.53792-6.03648-5.77536v-32.3328c0-2.23744 2.30912-4.282027 6.03648-5.77536l0.04608-0.018773c3.746133-1.4848 9.019733-9.460053 14.634667-9.460053z m34.599253 25.402026l-31.232 0.2816v20.5056h31.232v-20.7872zM494.010027 446.206293h38.813013c5.623467 0 10.064213 7.978667 13.810347 9.470294l0.023893-0.01024c3.72224 1.483093 6.03648 3.534507 6.03648 5.794133v32.3328c0 2.259627-2.31424 4.31104-6.03648 5.794133l-0.023893-0.01024c-3.746133 1.491627-8.891733 7.778987-14.5152 7.778987h-38.531414c-5.614933 0-10.46528-6.283947-14.211413-7.768747l-0.04608-0.018773c-3.72736-1.493333-6.03648-3.53792-6.03648-5.77536v-32.3328c0-2.23744 2.30912-4.282027 6.03648-5.77536l0.04608-0.018773c3.746133-1.4848 9.019733-9.460053 14.634667-9.460054z m41.93792 17.360214l-44.77952 1.829546 6.208853 26.999467h31.232l7.338667-28.829013zM630.54336 446.206293h38.813013c5.623467 0 10.064213 7.978667 13.810347 9.470294l0.023893-0.01024c3.72224 1.483093 6.03648 3.534507 6.03648 5.794133v32.3328c0 2.259627-2.31424 4.31104-6.03648 5.794133l-0.023893-0.01024c-3.746133 1.491627-8.891733 7.778987-14.5152 7.778987h-38.531413c-5.614933 0-10.46528-6.283947-14.211414-7.768747l-0.04608-0.018773c-3.72736-1.493333-6.03648-3.53792-6.03648-5.77536v-32.3328c0-2.23744 2.30912-4.282027 6.03648-5.77536l0.04608-0.018773c3.746133-1.4848 9.019733-9.460053 14.634667-9.460054z m41.93792 17.360214l-44.77952 1.829546 6.208853 26.999467h31.232l7.338667-28.829013z" p-id="2787"></path><path d="M620.2112 500.538027l-38.382933-34.996907 4.0448-4.44416 38.382933 34.996907zM675.401387 496.093867l38.382933-34.996907 4.0448 4.44416-38.382933 34.996907zM804.066987 519.558827h25.35936v6.02112h-25.35936z" p-id="2788"></path><path d="M772.230827 519.179947h31.83616v12.25728h-31.83616zM771.928747 539.502933h31.83616v25.541974h-31.83616z" p-id="2789"></path><path d="M773.635413 563.33824h28.724907v-58.24512h-28.724907v58.24512z m30.431574 3.413333h-33.844907v-65.071786h35.551573v65.071786h-1.706666z" p-id="2790"></path><path d="M746.359467 519.558827h25.35936v6.02112H746.359467z" p-id="2791"></path></svg>