<svg t="1624871576818" class="icon" viewBox="0 0 1024 1024" version="1.1" xmlns="http://www.w3.org/2000/svg" p-id="4825" width="200" height="200"><path d="M 181.248 659.456 a 24.5965 24.5965 0 1 0 -34.816 34.816 l 189.44 189.44 a 24.6579 24.6579 0 0 0 34.816 0 c 9.6256 -9.6256 9.6256 -25.1904 0 -34.816 L 181.248 659.456 Z M 857.088 173.056 c -9.6256 -9.6256 -25.1904 -9.6256 -34.816 0 l -67.7888 67.7888 l -1.6384 -1.6384 c -29.2864 -29.2864 -66.3552 -47.5136 -104.653 -51.4048 c -39.936 -3.8912 -76.3904 8.192 -102.4 34.2016 l -323.584 323.584 l -39.5264 -39.5264 a 24.5965 24.5965 0 1 0 -34.816 34.816 l 340.992 340.992 a 24.6579 24.6579 0 0 0 34.816 0 c 9.6256 -9.6256 9.6256 -25.1904 0 -34.816 l -39.5264 -39.5264 l 323.584 -323.584 c 52.224 -52.224 44.6464 -145.203 -17.2032 -206.848 l -1.6384 -1.6384 l 67.7888 -67.7888 c 10.0352 -9.4208 10.0352 -24.9856 0.4096 -34.6112 Z m -83.7632 276.48 l -323.584 323.584 l -192.512 -192.512 l 182.886 -182.886 c 0.8192 1.2288 1.4336 2.8672 2.6624 3.8912 l 77.4144 77.4144 a 24.6579 24.6579 0 0 0 34.816 0 c 9.6256 -9.6256 9.6256 -25.1904 0 -34.816 l -77.4144 -77.4144 c -1.2288 -1.2288 -2.6624 -1.6384 -3.8912 -2.6624 l 44.032 -44.032 c 0.8192 1.2288 1.4336 2.8672 2.6624 3.8912 l 77.4144 77.4144 a 24.6579 24.6579 0 0 0 34.816 0 c 9.6256 -9.6256 9.6256 -25.1904 0 -34.816 l -77.4144 -77.4144 c -1.2288 -1.2288 -2.6624 -1.6384 -3.8912 -2.6624 l 29.696 -29.696 c 15.36 -15.36 37.6832 -22.528 62.6688 -20.0704 c 26.8288 2.6624 53.4528 15.9744 74.752 37.2736 l 37.888 37.888 c 42.3936 42.8032 49.9712 104.448 16.9984 137.626 Z" p-id="4826"></path></svg>