<svg t="1624871505381" class="icon" viewBox="0 0 1024 1024" version="1.1" xmlns="http://www.w3.org/2000/svg" p-id="4406" width="200" height="200"><path d="M936 493L550.5 107.5c-21.3-21.3-55.8-21.3-77.1 0L88 493c-21.3 21.3-21.3 55.8 0 77.1h111.3v323.3c0 21.6 17.5 39.1 39.1 39.1h547.5c21.6 0 39.1-17.5 39.1-39.1V570.1h111c21.3-21.3 21.3-55.9 0-77.1zM668.6 893.4H355.7v-29.3h312.9v29.3z m0-68.4H355.7v-29.3h312.9V825z m0-68.5H355.7v-29.3h312.9v29.3z m0-68.4H355.7v-29.3h312.9v29.3z m0-68.5H355.7v-29.3h312.9v29.3z m117.3-88v361.7h-78.2V551.2H316.6v342.2h-78.2V531.6H111.3l400.9-400.9L913 531.6H785.9z" p-id="4407"></path></svg>